<svg width="512" height="328" viewBox="0 0 512 328" fill="none" xmlns="http://www.w3.org/2000/svg">
<path fill-rule="evenodd" clip-rule="evenodd" d="M198.54 0.0203174C209.642 -0.0797069 210.743 0.120342 212.843 2.22085C215.044 4.32136 215.144 4.92151 215.044 23.7261C215.044 42.3306 214.943 43.0308 212.743 45.0313C210.643 47.1318 209.742 47.2318 183.037 46.4316V63.9358L196.94 64.2359C209.242 64.436 211.043 64.636 212.943 66.4364C214.343 67.7368 215.144 69.6372 215.044 71.7377C215.044 73.5382 214.243 75.7387 213.043 76.939C211.143 78.8395 209.742 78.9395 192.739 78.9395C181.137 78.9395 173.135 79.4396 170.735 80.2398C168.634 80.8399 165.433 82.9405 163.733 84.6409C160.733 87.7416 160.633 87.9417 162.533 88.6418C163.633 89.0419 169.934 91.6426 176.536 94.5433C188.438 99.6445 188.538 99.6445 192.539 98.2442C195.039 97.2439 200.04 96.7438 205.542 96.7438C210.443 96.7438 217.444 97.444 221.045 98.2442C224.645 99.1444 239.448 103.846 254.051 108.747C268.654 113.648 281.457 118.049 282.557 118.649C283.657 119.249 286.758 122.15 289.559 125.151C293.659 129.752 295.86 131.152 301.561 133.253C305.462 134.653 312.663 136.553 317.564 137.454C323.966 138.654 329.067 139.054 335.068 138.654C339.769 138.254 345.57 137.354 348.07 136.654C350.571 135.853 354.372 134.353 356.572 133.253C358.773 132.152 363.474 129.352 367.074 127.051C370.675 124.751 375.776 122.35 378.577 121.65C381.677 120.95 390.679 120.45 402.081 120.45C415.684 120.45 421.685 120.85 424.586 121.85C426.786 122.65 430.087 124.751 431.987 126.351C433.788 128.051 436.288 131.252 437.388 133.453C438.689 136.053 439.589 140.354 439.989 145.656C440.589 153.358 440.689 153.958 443.09 154.458C444.49 154.758 446.39 155.258 447.29 155.458C448.791 155.858 449.091 155.258 449.091 152.257C449.091 150.157 449.491 146.856 450.091 144.956C450.591 143.055 452.692 139.454 454.792 137.054C456.892 134.653 460.393 131.752 462.594 130.652C465.694 129.052 468.595 128.552 475.596 128.552C482.398 128.452 485.398 128.852 487.799 130.252C489.599 131.152 492.1 133.453 493.3 135.253C495.3 138.054 495.6 139.954 495.9 150.457C496.2 160.359 495.9 163.16 494.4 166.361C493.3 168.961 490.999 171.362 483.598 175.963L479.597 172.062C477.397 169.962 473.096 166.861 470.095 165.16C467.094 163.56 460.293 160.759 455.092 159.059C449.891 157.359 440.889 155.158 424.586 152.457L424.886 147.956C425.086 145.456 424.686 142.255 424.186 140.754C423.486 139.054 421.685 137.354 419.585 136.453C416.984 135.353 412.383 134.953 402.281 134.953C394.78 134.953 386.778 135.453 384.578 135.953C382.377 136.553 380.477 137.054 380.377 137.154C380.177 137.354 380.777 139.454 381.577 141.955C382.477 144.455 383.077 148.756 383.077 151.457C383.077 154.258 382.677 157.959 382.077 159.759C381.177 162.56 381.277 162.96 382.777 162.96C383.778 162.96 382.277 164.26 379.577 165.861C376.776 167.561 371.475 171.562 367.574 174.963C363.674 178.364 359.973 182.065 359.173 183.265C358.172 184.865 357.672 185.065 357.172 184.165C356.672 183.165 355.472 183.165 351.071 184.165C347.77 184.965 339.269 185.465 330.067 185.365C321.565 185.365 312.663 184.765 310.263 184.165C307.962 183.465 305.862 183.265 305.662 183.765C305.362 184.165 306.762 186.566 308.662 189.266C310.563 191.867 313.763 195.068 315.764 196.468C317.864 197.768 322.265 199.469 325.566 200.069C328.867 200.669 334.968 200.969 346.67 200.469L340.169 215.473L335.368 215.773C332.767 215.973 327.666 215.573 324.066 214.973C320.465 214.472 315.264 212.972 312.563 211.672C309.763 210.371 305.562 207.571 303.061 205.27C300.561 203.07 293.359 193.467 275.556 166.861L264.554 166.961L263.853 178.664C263.153 189.066 262.753 191.067 260.253 195.468C258.652 198.168 255.552 201.669 253.451 203.27C250.851 205.17 247.25 206.37 242.549 207.171C237.348 207.971 233.847 207.971 229.046 207.171C225.446 206.47 220.945 204.87 218.744 203.47C216.744 202.069 213.943 199.269 212.543 197.168C211.243 195.168 209.642 191.467 209.142 188.966C208.542 186.466 208.042 180.664 208.042 167.461L200.841 166.861C196.84 166.561 192.039 165.561 190.238 164.66C188.538 163.66 186.838 163.06 186.638 163.16C186.438 163.36 192.839 182.565 201.041 205.97C209.142 229.376 216.444 249.781 217.244 251.481C218.144 253.182 220.145 255.782 221.645 257.383C223.245 258.883 225.846 260.884 227.546 261.784C229.246 262.584 232.047 263.684 233.747 264.184C235.548 264.585 237.048 264.685 237.048 264.284C237.048 263.784 236.648 263.084 236.148 262.484C235.648 261.884 234.747 259.683 234.047 257.483C233.347 255.282 232.847 250.581 232.947 246.98C233.047 242.479 233.747 238.978 235.348 235.478C236.648 232.777 239.048 228.876 240.749 226.975C242.449 225.075 246.25 222.174 249.15 220.474C254.051 217.773 255.352 217.473 264.053 217.473C272.755 217.473 274.055 217.773 278.956 220.474C281.857 222.174 285.658 225.075 287.358 226.975C289.058 228.876 291.559 232.977 292.859 235.978C294.66 240.079 295.36 243.179 295.26 247.981C295.26 251.581 294.56 256.483 293.659 258.983C292.759 261.484 292.059 263.784 292.059 264.284C292.059 264.685 298.46 264.885 320.465 264.485L321.265 260.984C321.665 259.083 322.865 256.383 323.866 254.982C324.966 253.582 327.066 251.681 328.666 250.681C331.267 249.181 334.968 248.981 402.081 248.981L401.481 243.279C401.181 240.079 401.381 235.678 401.881 233.477C402.481 231.276 404.882 227.276 407.282 224.675C409.683 221.874 413.284 219.174 415.584 218.273C418.185 217.373 421.985 216.873 426.286 217.173C431.687 217.373 433.688 217.973 437.288 220.574C439.589 222.174 442.99 225.775 444.59 228.476C446.99 232.377 447.591 234.477 447.591 238.878C447.591 241.979 447.29 245.58 446.89 246.98C446.29 249.081 446.69 249.881 449.091 251.481C450.691 252.582 452.792 254.782 453.692 256.483C455.092 258.983 455.292 261.884 455.192 272.987C454.992 285.09 454.692 286.79 452.792 289.391C451.591 291.091 448.691 293.192 446.29 294.192C442.39 295.892 438.189 295.992 386.678 295.792C332.167 295.492 331.167 295.492 328.366 293.392C326.866 292.291 324.566 289.791 323.265 287.89C322.065 285.99 321.065 283.489 321.065 279.988H279.256C254.952 279.988 235.248 279.588 232.047 278.988C229.046 278.388 224.045 276.788 221.045 275.287C218.044 273.787 213.443 270.586 210.943 268.085C208.442 265.485 205.442 261.684 204.341 259.483C203.141 257.283 193.839 231.176 183.537 201.469C173.335 171.762 164.433 147.056 163.933 146.456C163.333 145.856 157.832 143.355 151.731 140.754C145.529 138.154 140.428 136.053 140.428 136.253C140.328 136.353 136.228 146.056 131.127 157.759C126.126 169.361 122.025 179.164 122.025 179.464C122.025 179.764 119.624 185.065 116.624 191.267C113.723 197.368 110.722 204.27 110.022 206.47C109.322 208.671 107.522 213.172 103.321 222.474L106.221 225.975C107.822 227.876 109.522 231.076 110.022 232.977C110.622 234.877 111.022 238.478 111.022 240.979C111.022 243.479 110.122 247.28 109.122 249.481C108.122 251.681 106.021 254.782 104.421 256.383C102.821 257.883 99.7202 260.083 97.5197 261.284C94.8192 262.684 91.6185 263.284 87.5177 263.284C83.4169 263.284 80.3163 262.684 77.5157 261.284C75.3152 260.083 72.3146 257.883 70.9144 256.283C69.4141 254.782 67.4136 251.881 66.4134 249.981C65.2132 247.647 64.5797 244.28 64.5131 239.879C64.5131 234.277 64.9131 232.577 67.5137 228.476C69.114 225.775 72.3146 222.274 74.5151 220.774C77.1156 218.873 80.4163 217.673 89.5181 216.473L97.6198 197.468C102.121 187.066 106.922 175.963 108.422 172.962C109.822 169.962 113.923 160.359 117.524 151.757C121.125 143.055 124.025 135.753 124.025 135.453C124.025 135.153 119.324 134.853 113.623 134.753C103.821 134.453 102.921 134.253 98.82 131.352C96.4195 129.752 93.2189 126.151 91.5185 123.45C88.5179 118.649 88.5179 118.449 88.5179 104.046C88.5179 91.7426 88.818 88.9419 90.4183 85.9412C91.4185 84.0407 93.4189 81.14 94.9192 79.6397C96.3195 78.0393 99.3201 75.8387 101.521 74.6384C104.921 72.838 107.122 72.4379 116.023 72.4379C125.125 72.5379 127.226 72.838 132.027 75.0385C135.027 76.4389 139.428 79.2396 146.03 84.9409L148.03 80.94C149.13 78.7394 151.731 75.3386 153.731 73.3381C155.832 71.3376 159.932 68.637 168.034 64.9361L168.334 41.2303C168.534 19.0249 168.634 17.1245 170.735 13.4236C171.835 11.223 174.135 8.22231 175.736 6.82197C177.236 5.32161 180.336 3.22109 182.537 2.12083C185.938 0.32039 188.438 0.0203174 198.54 0.0203174V0.0203174ZM184.537 19.9252C183.637 21.4255 183.237 23.426 183.637 24.9264C183.937 26.3267 185.137 28.4272 186.338 29.7275C188.138 31.528 189.638 31.9281 194.239 31.9281H200.04V14.9239C192.639 14.9239 189.538 15.5241 188.338 16.2243C187.138 16.9244 185.438 18.6248 184.537 19.9252ZM104.621 91.9426C103.521 93.7431 103.021 97.1439 103.021 103.746C103.021 109.547 103.521 113.948 104.421 115.748C105.121 117.249 106.522 118.749 107.422 119.249C108.322 119.649 112.523 119.949 116.724 119.949C123.225 120.049 125.125 119.649 128.026 117.749C129.926 116.449 132.527 113.848 133.727 111.948C135.327 109.647 136.028 107.046 136.028 104.246C136.028 101.845 135.227 98.2442 134.227 96.2437C133.327 94.2432 130.726 91.4425 128.526 90.0422C125.425 88.0417 122.925 87.4416 117.524 87.1415C112.923 86.9414 109.722 87.3415 108.322 88.1417C107.122 88.8419 105.421 90.6423 104.621 91.9426V91.9426ZM148.93 116.149C147.63 119.349 146.73 122.05 147.03 122.35C147.33 122.55 152.031 124.551 157.532 126.851C163.033 129.152 167.634 130.952 167.834 130.752C167.934 130.552 168.534 128.251 169.034 125.451C169.634 122.75 171.135 118.249 172.535 115.448C173.935 112.748 174.935 110.347 174.835 110.247C174.635 110.147 170.434 108.247 165.533 106.046C160.532 103.746 156.132 101.945 155.832 101.945C155.431 101.945 154.231 103.846 153.231 106.246C152.231 108.547 150.33 113.048 148.93 116.149V116.149ZM192.639 114.948C190.539 116.349 187.538 119.449 186.138 121.95C184.237 125.351 183.537 127.751 183.637 131.952C183.637 135.853 184.337 138.754 186.138 141.755C187.438 144.155 190.339 147.256 192.439 148.756L196.34 151.457L274.055 151.957C277.956 148.456 279.457 146.156 279.957 144.455C280.357 142.855 280.357 140.154 279.957 138.454C279.557 136.854 278.156 134.453 276.856 133.353C275.456 132.052 263.753 127.651 247.05 122.05C231.947 117.049 216.344 112.548 212.343 111.948C208.442 111.447 204.641 110.947 203.841 111.047C203.141 111.147 201.241 111.447 199.54 111.847C197.84 112.248 194.739 113.648 192.639 114.948V114.948ZM466.094 146.756C464.994 148.256 463.994 150.657 464.094 152.257C464.094 153.758 465.194 156.058 466.594 157.459C467.995 158.859 470.595 160.259 472.396 160.559C474.096 160.859 476.696 160.959 478.097 160.759C480.497 160.459 480.597 160.259 480.597 151.957V143.455C474.396 143.255 471.595 143.355 470.395 143.655C469.195 143.855 467.195 145.256 466.094 146.756V146.756ZM342.569 153.057C337.868 153.758 330.867 153.958 325.566 153.658C320.665 153.358 312.563 151.957 307.562 150.657C302.661 149.357 297.76 147.956 296.66 147.556C295.16 146.956 294.56 147.556 293.759 150.157C293.159 151.957 291.859 154.858 290.759 156.458C289.058 159.059 288.958 159.759 290.159 161.66C291.159 163.16 293.859 164.56 298.56 165.961C302.461 167.061 308.062 168.461 311.063 169.161C314.064 169.862 322.665 170.362 330.067 170.462C339.369 170.462 345.97 169.962 351.371 168.761C356.572 167.561 360.073 166.061 362.273 164.26C363.974 162.66 365.974 159.959 366.774 158.259C367.474 156.458 368.074 153.258 368.074 151.257C368.074 149.157 367.674 146.956 367.174 146.456C366.574 145.756 363.674 146.456 358.473 148.656C354.072 150.357 346.97 152.357 342.569 153.057V153.057ZM222.845 176.163C222.945 180.464 223.745 185.465 224.545 187.466C225.646 190.066 226.946 191.267 229.847 192.067C231.847 192.767 235.648 193.067 238.248 192.867C241.449 192.567 243.649 191.667 245.45 189.966C247.95 187.566 248.15 186.966 248.05 177.263V166.961C229.746 166.961 224.045 167.261 223.545 167.661C223.045 167.961 222.745 171.862 222.845 176.163ZM80.5163 236.078C79.7161 237.678 79.016 239.879 79.016 240.979C79.016 242.079 80.1162 244.18 81.4165 245.78C83.2168 247.78 84.7171 248.481 87.5177 248.481C90.3183 248.481 91.8186 247.78 93.6189 245.78C95.0192 244.18 96.0194 241.679 96.0194 239.979C96.0194 238.078 95.1193 236.078 93.5189 234.477C91.8186 232.777 90.0182 231.977 87.8178 232.077C86.0174 232.077 83.917 232.377 83.3169 232.677C82.6167 232.977 81.3165 234.477 80.5163 236.078ZM250.551 238.878C248.75 241.479 247.95 243.88 247.95 247.48C247.85 250.281 248.55 253.882 249.45 255.782C250.351 257.483 252.251 259.883 253.851 261.084C255.352 262.184 258.152 263.584 260.053 264.184C262.553 264.985 264.654 264.985 267.554 264.184C269.755 263.584 272.755 262.184 274.356 261.084C275.856 259.883 277.756 257.483 278.656 255.782C279.557 253.882 280.257 250.281 280.257 247.48C280.157 243.98 279.457 241.479 277.756 238.978C276.456 237.078 273.755 234.677 271.755 233.777C269.755 232.777 266.154 231.977 263.853 231.977C261.453 231.977 258.052 232.777 256.252 233.677C254.551 234.577 251.951 236.978 250.551 238.878V238.878ZM416.084 239.979C416.084 241.779 417.084 244.08 418.485 245.78C420.285 247.78 421.885 248.481 424.386 248.481C426.486 248.481 428.687 247.68 429.987 246.48C431.187 245.38 432.387 243.279 432.588 241.779C432.888 240.179 432.487 237.778 431.687 236.278C430.987 234.677 429.587 233.177 428.687 232.777C427.787 232.277 425.686 231.977 424.086 231.977C422.085 231.977 420.085 232.877 418.585 234.477C417.184 235.878 416.184 238.078 416.084 239.979ZM336.068 280.989H441.089V263.984H336.068V280.989Z" fill="#3E4C66"/>
<path fill-rule="evenodd" clip-rule="evenodd" d="M90.5183 152.457C95.5193 152.657 102.921 153.558 107.022 154.558C111.122 155.458 114.623 156.358 114.823 156.558C114.923 156.758 113.823 160.159 112.323 164.06C109.922 170.162 109.222 171.062 107.522 170.462C106.422 170.162 103.021 169.461 100.02 168.861C97.0196 168.261 89.8182 167.961 84.017 168.261C76.4155 168.561 71.3144 169.461 65.5133 171.262C61.1124 172.762 54.611 175.563 51.0103 177.663C47.4096 179.764 40.9083 185.065 36.5074 189.466C31.1063 194.868 27.2055 199.769 24.805 204.47C22.8046 208.271 20.2041 214.172 19.0038 217.473C17.9036 220.774 16.5033 227.075 15.8032 231.477C15.003 237.178 15.003 241.879 15.8032 247.981C16.3033 252.682 18.0036 259.883 19.4039 263.984C20.8042 268.085 23.5048 273.987 25.3051 276.888C27.0055 279.888 31.7064 285.79 35.7072 289.891C39.8081 294.392 45.7092 299.293 49.9101 301.694C53.8109 304.094 60.5122 307.195 64.7131 308.595C69.014 309.996 76.1154 311.596 80.5163 311.996C84.9172 312.396 91.9186 312.396 96.0194 311.896C100.12 311.396 106.422 310.096 110.022 308.895C113.623 307.795 119.224 305.394 122.525 303.494C125.825 301.694 131.127 297.993 134.427 295.292C137.628 292.691 142.329 287.79 144.829 284.489C147.33 281.189 151.031 274.887 153.131 270.486C155.231 266.085 157.632 258.683 158.632 253.982C159.832 247.781 160.132 242.879 159.732 235.978C159.432 230.576 158.232 223.475 157.032 219.474C155.832 215.673 153.231 209.371 151.231 205.57C149.13 201.669 144.529 195.368 140.928 191.567C137.328 187.666 131.827 182.665 128.626 180.464C125.525 178.264 123.025 176.363 123.025 176.163C123.025 176.063 124.325 173.062 126.025 169.461C127.726 165.861 129.226 162.96 129.526 162.96C129.826 162.96 132.827 164.86 136.228 167.161C139.728 169.461 145.429 174.063 148.83 177.363C152.331 180.764 157.632 187.066 160.532 191.467C163.533 195.868 167.334 203.07 169.034 207.471C170.835 211.872 172.935 218.673 173.735 222.474C174.535 226.275 175.235 234.377 175.235 240.479C175.235 247.38 174.535 254.282 173.435 258.983C172.535 263.084 170.635 269.186 169.334 272.487C168.034 275.787 165.133 281.589 162.833 285.49C160.532 289.391 155.231 295.992 151.031 300.393C146.93 304.694 141.029 309.896 138.028 311.996C135.027 313.997 130.026 316.997 127.026 318.498C124.025 319.998 119.024 322.099 116.023 323.199C113.023 324.199 107.522 325.799 103.721 326.5C100.02 327.3 92.6187 328 87.3177 328C80.1162 328 74.8151 327.4 67.5137 325.499C62.0125 324.199 53.9109 321.298 49.51 319.098C45.1091 316.897 38.8078 313.196 35.5072 310.696C32.2065 308.295 26.6054 303.094 23.0047 299.193C19.4039 295.392 15.003 289.791 13.3027 286.89C11.5023 283.889 8.50172 277.888 6.60134 273.487C4.70095 269.086 2.40049 261.984 1.60032 257.683C0.700142 253.482 0 245.78 0 240.779C0 235.678 0.500101 228.776 1.0002 225.475C1.60032 222.174 3.00061 216.573 4.20085 212.972C5.30107 209.371 7.4015 204.17 8.80178 201.469C10.2021 198.769 13.1027 193.767 15.3031 190.467C17.5035 187.166 22.3045 181.464 25.9052 177.864C29.506 174.263 34.507 169.962 37.0075 168.261C39.508 166.561 44.609 163.56 48.5098 161.66C52.4106 159.759 58.6119 157.158 62.5126 156.058C66.3134 154.858 72.2146 153.558 75.5153 152.957C78.8159 152.457 85.5173 152.257 90.5183 152.457V152.457ZM420.385 152.057C421.285 152.057 427.386 152.857 433.788 153.958C440.289 155.058 449.891 157.359 455.092 159.059C460.293 160.759 467.295 163.66 470.595 165.461C474.496 167.561 479.297 171.662 484.298 177.063C488.599 181.664 492.7 186.266 493.6 187.166C494.4 188.166 497.201 192.267 499.801 196.168C502.302 200.169 505.602 206.871 507.103 210.972C508.603 215.073 510.403 221.674 511.103 225.475C512.004 230.076 512.204 236.578 511.804 244.48C511.403 252.082 510.503 259.083 509.203 263.484C508.003 267.385 505.502 273.887 503.502 277.988C501.601 282.089 498.001 288.19 495.7 291.491C493.3 294.792 488.299 300.393 484.498 303.894C480.697 307.495 475.096 311.896 472.095 313.897C469.095 315.797 463.894 318.598 460.593 320.198C457.292 321.698 450.091 324.099 444.59 325.499C437.088 327.4 432.087 328 424.586 328C418.485 328 411.283 327.2 406.082 326.1C401.381 324.999 394.18 322.699 390.079 320.998C385.978 319.298 379.677 315.897 376.076 313.496C372.475 311.196 366.474 306.095 355.872 295.492L377.576 294.892L381.077 297.993C382.977 299.793 388.179 302.894 392.579 304.994C396.98 307.095 403.682 309.596 407.582 310.496C411.783 311.496 418.585 312.196 424.586 312.196C430.687 312.196 437.088 311.496 441.089 310.496C444.69 309.596 449.791 307.895 452.592 306.795C455.292 305.695 460.093 303.194 463.094 301.293C466.094 299.393 471.395 294.992 474.896 291.691C478.297 288.29 482.898 282.789 485.098 279.488C487.299 276.187 490.199 270.686 491.599 267.185C493 263.784 494.8 256.783 495.7 251.681C496.8 245.68 497.101 240.079 496.7 235.478C496.4 231.677 495.4 225.775 494.6 222.474C493.8 219.174 490.999 212.172 488.399 206.971C484.598 199.169 482.298 196.068 475.696 189.466C471.195 185.065 464.694 179.764 461.093 177.663C457.493 175.563 450.991 172.662 446.59 171.262C439.489 168.861 437.088 168.561 424.586 168.561C413.784 168.461 409.183 168.961 404.582 170.362C401.281 171.362 394.98 174.063 390.579 176.263C384.478 179.464 380.477 182.565 373.576 189.466C367.174 195.768 363.474 200.569 360.873 205.47C358.873 209.271 356.172 215.873 354.972 219.974C353.171 225.775 352.671 229.876 352.571 248.981H336.568L336.468 245.18C336.468 243.179 336.768 237.178 337.268 231.977C337.668 226.775 338.769 220.174 339.669 217.473C340.569 214.672 343.469 207.971 346.17 202.469C348.871 196.968 352.071 191.167 353.271 189.666C354.572 188.066 358.473 183.865 362.073 180.264C365.674 176.763 370.775 172.062 373.576 169.962C376.276 167.861 381.477 164.66 385.078 162.76C388.679 160.859 392.679 158.959 394.08 158.559C395.48 158.059 396.78 157.659 397.08 157.559C397.38 157.459 400.081 156.558 403.082 155.558C406.082 154.458 410.783 153.358 413.584 152.957C416.284 152.557 419.385 152.157 420.285 152.057H420.385ZM428.187 184.665C432.287 184.865 438.789 186.266 442.69 187.566C446.59 188.866 451.691 191.367 454.192 192.967C456.692 194.568 460.093 197.168 461.693 198.769C463.294 200.269 466.294 203.57 468.295 205.97C470.295 208.471 473.096 212.872 474.596 215.673C475.996 218.573 477.897 223.975 478.797 227.676C479.897 232.477 480.297 237.178 479.897 243.479C479.597 249.381 478.697 254.582 477.197 258.483C475.896 261.784 472.896 267.585 470.295 271.386C467.795 275.187 463.694 280.088 461.193 282.189C458.693 284.289 456.392 285.99 455.892 285.99C455.492 285.99 455.192 280.488 455.192 273.687C455.192 266.285 455.592 262.084 456.092 262.984C456.792 264.184 457.292 264.084 458.593 261.984C459.393 260.584 460.993 257.183 462.093 254.482C463.094 251.681 464.294 246.98 464.694 243.98C465.094 240.279 464.794 236.178 463.794 231.477C462.794 227.075 460.793 222.274 458.393 218.473C456.292 215.173 452.792 211.072 450.591 209.271C448.491 207.571 443.99 204.87 440.689 203.37C436.388 201.369 432.588 200.469 427.186 200.169C421.985 199.869 417.885 200.269 413.684 201.469C410.383 202.369 405.682 204.37 403.182 205.97C400.681 207.471 396.98 210.671 394.88 212.872C392.879 215.173 389.779 219.674 388.179 222.974C386.578 226.275 384.178 229.676 382.877 230.476C381.677 231.276 379.877 231.977 378.877 231.977C377.976 231.977 375.776 230.676 374.176 228.976C372.575 227.276 371.175 225.175 371.175 224.175C371.175 223.275 372.675 219.274 374.576 215.473C376.576 211.672 380.077 206.17 382.477 203.47C384.878 200.669 389.679 196.568 393.28 194.167C396.78 191.767 402.081 188.966 404.882 187.866C407.782 186.866 412.583 185.565 415.384 185.065C418.285 184.565 424.086 184.365 428.187 184.665V184.665ZM71.6145 186.966C72.7147 186.966 74.8151 187.766 76.3154 188.966C78.3158 190.367 79.116 191.867 79.116 193.967C79.116 195.668 78.8159 197.668 78.3158 198.569C77.9158 199.569 74.415 201.869 70.6143 203.77C66.7135 205.67 61.6125 209.371 59.0119 211.872C56.5114 214.372 53.3108 218.974 51.8105 221.974C50.3102 224.975 48.6098 230.176 48.0097 233.477C47.2095 237.878 47.2095 241.179 48.0097 245.98C48.6098 249.581 50.2102 254.882 51.6104 257.683C53.0107 260.584 56.5114 265.385 59.312 268.285C62.2126 271.186 67.3136 274.887 70.6143 276.587C76.1154 279.288 77.5157 279.488 87.6177 279.488C97.5197 279.488 99.2201 279.188 104.321 276.688C107.522 275.187 112.423 271.886 115.223 269.186C118.024 266.585 121.325 262.684 122.625 260.484C123.925 258.283 125.725 253.582 126.726 249.981C127.926 245.38 128.226 241.479 127.826 236.478C127.326 231.377 126.226 227.576 123.725 222.474C121.625 217.973 118.524 213.772 110.122 205.97L112.723 199.669C114.123 196.268 115.623 193.167 115.923 192.767C116.324 192.367 119.224 194.067 122.325 196.468C125.525 198.969 129.826 203.37 132.027 206.17C134.127 209.071 136.828 213.372 138.028 215.673C139.128 218.073 140.828 222.574 141.629 225.675C142.429 228.876 143.129 235.277 143.129 239.979C143.129 244.68 142.429 251.181 141.529 254.482C140.728 257.783 138.628 263.184 136.828 266.485C135.127 269.786 130.726 275.487 127.126 279.088C123.525 282.689 118.124 286.99 115.123 288.79C112.123 290.491 106.021 292.791 101.621 293.992C97.2197 295.092 91.1184 295.992 88.1178 295.992C85.1172 295.992 79.7161 295.392 76.1154 294.592C72.5147 293.892 67.1136 291.991 64.113 290.491C61.1124 288.991 56.2114 285.99 53.3108 283.889C50.5102 281.789 46.0093 277.188 43.5088 273.687C41.0083 270.286 38.0077 265.485 37.0075 262.984C35.9073 260.484 34.3069 255.782 33.6068 252.482C32.8066 249.181 32.1065 243.279 32.1065 239.478C32.1065 235.678 32.8066 229.776 33.7068 226.475C34.607 223.175 36.6074 217.973 38.1077 214.973C39.608 211.972 42.6086 207.371 44.709 204.77C46.9095 202.169 51.1103 198.168 54.1109 195.868C57.1115 193.567 61.8125 190.667 64.6131 189.366C67.3136 188.066 70.5143 187.066 71.6145 186.966V186.966Z" fill="#FF5A60"/>
<path d="M305.062 232.276C305.062 230.376 305.862 228.176 307.062 226.975C308.262 225.775 310.463 224.975 312.263 224.975C314.164 224.875 316.264 225.675 317.264 226.675C318.164 227.675 319.165 229.576 319.565 230.976C320.065 232.777 319.565 234.277 317.864 236.377C316.264 238.378 314.564 239.278 312.463 239.378C310.563 239.478 308.462 238.678 307.162 237.477C305.762 236.177 304.962 234.277 305.062 232.276Z" fill="#3E4C66"/>
</svg>
