<svg width="512" height="346" viewBox="0 0 512 346" fill="none" xmlns="http://www.w3.org/2000/svg">
<path fill-rule="evenodd" clip-rule="evenodd" d="M349.659 0L357.651 2.5C362.046 4 367.441 6.2 369.639 7.4C371.837 8.7 376.332 12 379.629 14.7C382.926 17.4 388.121 23 391.318 27.1C394.415 31.2 398.91 38.1 401.308 42.5C403.706 46.9 407.502 54.6 413.596 68.8L416.094 64.9C417.492 62.8 420.889 59.9 423.586 58.3C428.282 55.7 429.381 55.5 442.068 55.2C451.06 54.9 457.054 55.3 460.051 56.1C463.048 57 466.245 59.1 469.741 62.5C473.138 65.8 475.236 68.9 475.935 71.5C476.535 73.7 477.034 77.3 477.034 79.5C477.034 81.7 476.435 85.3 475.735 87.4C475.136 89.5 472.938 93.1 471.04 95.3C469.142 97.5 465.745 100.2 463.547 101.3C460.95 102.6 456.554 103.5 442.568 104.5L447.063 107.8C449.561 109.7 454.057 112.7 457.054 114.5C460.051 116.4 465.945 118.8 470.041 119.8C474.137 120.9 480.431 123.2 484.027 125C488.023 127 492.819 130.6 496.515 134.4C499.812 137.8 503.908 143.2 505.606 146.5C507.404 149.8 509.502 155.1 510.402 158.2C511.8 163.3 512 173.4 512 242.7C512 309.3 511.8 322.2 510.601 326C509.702 328.5 506.905 332.9 504.308 335.9C501.211 339.4 497.614 342.2 494.317 343.7C489.122 346 488.523 346 419.091 346L413.296 343.1C410.199 341.6 406.103 338.5 404.205 336.4C402.307 334.2 399.909 330.5 398.811 328C397.412 325 396.613 320.2 395.614 304H116.886L116.286 313.7C115.887 320.2 115.088 325 113.689 328C112.59 330.5 110.192 334.2 108.294 336.4C106.396 338.5 102.3 341.6 93.4088 346H58.4429C23.577 346 23.4771 346 18.1822 343.6C14.9854 342.1 11.1891 339.1 8.192 335.8C5.59454 332.9 2.79727 328.5 1.89815 326C0.699317 322.3 0.499512 313.1 0.499512 273.7C0.499512 227.3 0.599415 225.9 2.49756 224C3.59649 222.9 5.69444 222 7.29288 222C8.79141 222 10.8894 222.6 11.9883 223.4C13.8864 224.8 13.9863 226.3 14.4859 249.7C14.9854 273.9 15.0853 274.6 17.4829 278.8C18.8816 281.2 21.5789 284.2 23.4771 285.5C25.3752 286.8 29.1715 288.4 31.9688 289C35.2656 289.7 50.9502 290.1 116.886 289.8L117.685 281.6C118.185 277.2 119.383 271.2 120.382 268.5C121.381 265.7 124.279 261.2 126.676 258.5C129.074 255.7 133.869 251.9 143.86 246.5H368.64L373.635 249C376.332 250.3 381.128 253.9 384.225 257C388.021 260.8 390.419 264.2 391.817 268C393.016 271 394.315 277.2 395.614 289.8L435.575 290C461.549 290.1 477.234 289.7 480.531 289C483.228 288.4 487.124 286.8 489.022 285.5C490.921 284.2 493.618 281.2 497.514 274.5L497.814 222.5C498.014 185.9 497.814 168.7 497.015 164.5C496.315 161.2 494.717 156.4 493.418 153.7C492.119 151.1 489.022 147 486.525 144.5C484.027 142 479.032 138.5 468.542 133.5L282.724 133L270.736 145C261.844 153.9 258.148 157 256.25 157C254.352 157 250.655 153.9 229.776 133L43.9571 133.5L37.4634 136.6C33.8669 138.4 28.9717 141.8 26.4741 144.2C23.9766 146.7 20.7797 150.9 19.3811 153.6C17.8825 156.3 16.1842 161.1 15.5848 164.2C14.9854 167.4 13.5867 170.9 12.4878 172C11.3889 173.1 9.39083 174 7.9922 174C6.59356 174 4.29581 172.9 0 169.2L1.19883 162.3C1.89815 158.6 4.096 152.2 6.19395 148C8.59161 143.1 11.9883 138.4 15.8845 134.5C19.5809 130.8 24.6759 127 28.9717 124.9C32.768 122.9 38.6622 120.8 41.959 120.1C45.2558 119.4 49.2519 118.1 50.9502 117.3C52.5487 116.4 57.4439 113.4 61.6398 110.6C65.9356 107.8 69.4322 105.2 69.4322 104.7C69.4322 104.3 66.8347 104 63.6379 104C60.5409 104 55.6457 103.4 52.9483 102.5C50.151 101.7 46.1549 99.6 44.057 97.8C41.8591 96 39.0619 92.2 37.7631 89.5C36.4644 86.6 35.4654 82.6 35.4654 80C35.4654 77.5 36.0648 73.7 36.6642 71.5C37.4634 69.1 39.8611 65.5 42.958 62.5C45.9551 59.4 49.5516 57 51.9493 56.2C54.1471 55.6 61.7397 55 68.9327 55C81.1208 55 82.2197 55.1 87.4146 57.7C90.7114 59.4 94.208 62.2 96.1061 64.7C98.8035 68.3 99.5028 68.7 100.002 67.2C100.402 66.3 102.8 60.8 105.297 55C107.795 49.2 112.091 40.9 114.788 36.5C117.785 31.7 123.38 24.9 128.774 19.5C134.835 13.4333 140.03 9.26667 144.359 7C147.956 5.2 153.35 2.9 156.347 1.9C161.342 0.3 169.834 0.2 349.659 0V0ZM153.85 18C152.151 18.6 149.054 20.4 146.857 21.9C144.659 23.5 140.663 26.9 137.965 29.6C135.268 32.3 131.272 37.2 129.074 40.5C126.776 43.8 123.28 49.9 121.282 54C119.184 58.1 115.887 65.7 113.989 70.7C111.991 75.8 110.392 80.2 110.392 80.5C110.392 80.8 176.028 81 256.25 81H402.107C401.108 77.5 398.91 71.6 396.413 65.5C393.915 59.4 390.119 51.3 387.921 47.5C385.623 43.7 381.527 37.7 378.73 34.2C375.933 30.7 371.138 26.1 368.14 23.8C365.143 21.6 360.848 19 358.65 18C356.452 17.1 352.256 15.8 349.359 15.1C345.662 14.3 318.389 14 255.451 14.1C187.017 14.2 165.738 14.5 161.842 15.4C159.145 16.1 155.548 17.3 153.85 18V18ZM52.1491 72.6C51.3499 73.7 50.4507 75.5 50.0511 76.7C49.7514 78 49.8513 80.5 50.3508 82.2C50.9502 84 52.4488 86.3 53.8474 87.2C55.9454 88.7 58.5428 89 67.1344 89C76.4254 88.9 78.3235 89.2 80.6213 91C82.919 92.6 83.7182 92.8 84.9171 91.7C86.1159 90.8 86.5155 88.6 86.4156 82.7C86.4156 76 86.1159 74.6 84.0179 72.2C81.6203 69.6 81.3206 69.5 69.7319 69.3C63.2382 69.1 56.9444 69.4 55.7456 69.9C54.5467 70.4 52.9483 71.6 52.1491 72.6V72.6ZM427.083 74C426.484 75.1 426.084 79.3 426.084 83.2C425.984 88.6 426.384 90.9 427.582 92C428.981 93.3 429.281 93.3 430.879 91.8C432.278 90.4 434.476 90 442.068 90C447.263 90 453.257 89.5 455.255 89C457.853 88.3 459.751 86.9 461.05 84.7C462.548 82.4 462.948 80.5 462.648 78C462.348 76.1 460.95 73.4 459.551 72C457.154 69.7 456.254 69.5 445.765 69.2C437.473 69.1 433.776 69.4 431.279 70.5C429.581 71.3 427.582 72.9 427.083 74ZM94.4078 102.3C90.3118 106.3 84.5175 111.5 81.6203 113.8C78.823 116.1 76.7251 118.2 77.1247 118.5C77.6242 118.8 113.389 119.1 156.847 119.1H235.77L256.25 139.5L276.73 119.1C407.602 119 435.275 118.7 435.575 118C435.874 117.4 434.376 115.9 432.278 114.6C430.28 113.3 424.386 108.3 419.291 103.6L410.1 95L101.9 95.1L94.4078 102.3ZM140.163 265C138.365 266.4 135.867 269.6 134.668 272C132.97 275.3 132.371 278.2 132.371 283.2V290H380.129C380.129 278.2 379.529 275.3 377.831 272C376.632 269.6 374.235 266.4 372.536 265C370.738 263.6 367.641 261.9 365.543 261.2C362.546 260.3 337.071 260 255.75 260C177.327 260.1 149.054 260.4 146.657 261.3C144.859 261.9 141.861 263.6 140.163 265V265ZM14.7856 309.2C14.9854 320.3 15.2851 322.1 17.0833 324.6C18.2821 326.2 20.48 328.4 21.8786 329.5C24.4761 331.3 26.3742 331.5 56.5448 331.7C86.5155 331.9 88.7134 331.8 92.9093 330C95.6066 328.8 98.2041 326.6 99.4029 324.7C101.001 322.1 101.401 319.7 101.401 312.7V304C39.3616 304 31.8689 303.7 26.9737 302.4C23.6769 301.5 19.5809 299.9 17.7826 298.8L14.5858 296.7L14.7856 309.2ZM494.517 298.9C492.919 299.9 488.823 301.5 485.526 302.3C480.631 303.6 473.138 303.9 445.365 303.9H411.099C411.099 319.6 411.498 322 413.097 324.6C414.196 326.4 416.993 328.8 419.39 329.9C423.287 331.7 425.784 331.8 454.356 331.9C477.634 331.9 485.826 331.6 488.323 330.6C490.021 329.8 492.719 327.8 494.317 326.1C495.816 324.3 497.314 321.4 497.614 319.6C497.914 317.8 498.014 312 497.814 306.7L497.514 297L494.517 298.9Z" fill="#3E4C66"/>
<path fill-rule="evenodd" clip-rule="evenodd" d="M258.248 170.3C390.519 170.5 407.003 170.7 410.1 172.1C411.998 172.9 415.494 175.4 417.892 177.6C420.29 179.7 423.187 183.5 424.386 186C425.884 189.2 426.484 192.4 426.484 197C426.484 201.6 425.884 204.8 424.386 208C423.187 210.5 420.29 214.3 417.892 216.4C415.494 218.6 411.998 221.1 410.1 221.9C407.003 223.3 390.519 223.5 259.247 223.8C163.94 223.9 110.093 223.7 106.896 223C104.098 222.5 100.002 220.7 97.6047 219C95.307 217.4 92.0102 214.1 90.4117 211.7C88.7134 209.3 86.9152 205.2 86.3157 202C85.6164 198.1 85.6164 195 86.3157 191.5C86.9152 188.7 88.7134 184.6 90.4117 182.2C92.0102 179.9 95.1072 176.8 97.1052 175.2C99.1033 173.7 102.8 172 105.397 171.3C108.794 170.4 146.157 170.2 258.248 170.3V170.3ZM102 192.5C100.202 196.1 100.202 196.9 101.501 200.4C102.3 202.6 104.198 205.3 105.697 206.4L108.494 208.5H404.005C408.301 205.3 410.199 202.6 410.999 200.4C412.297 196.9 412.297 196.1 410.499 192.5C409.3 190 407.302 187.9 405.104 186.8C401.808 185.1 392.617 185 256.25 185C119.883 185 110.692 185.1 107.395 186.8C105.197 187.9 103.199 190 102 192.5Z" fill="#FF5A60"/>
</svg>
