<svg xmlns="http://www.w3.org/2000/svg" viewBox="0 0 383.3 273.9"><defs><style>.cls-1{fill:#3e4c66;}.cls-2{fill:#ff5a60;}</style></defs><g id="Layer_2" data-name="Layer 2"><g id="Layer_1-2" data-name="Layer 1"><path class="cls-1" d="M353.69,207.61h21.22c7,0,8.34,1.32,8.34,8.24,0,10,.16,20-.12,29.94a10.76,10.76,0,0,1-2.6,6.56q-9,9.72-18.78,18.78a10.62,10.62,0,0,1-6.56,2.67q-163.55.18-327.1.05c-1.77,0-4.07-.31-5.21-1.42C15.12,264.88,7.6,257.07,0,249.34V211.17c1.67-2.7,4.07-3.67,7.23-3.6,7.22.14,14.44,0,22.33,0l10.71-.15H343ZM10.48,218.31c0,8.26-.13,16.23.1,24.19a8.54,8.54,0,0,0,2.18,5.1c4.32,4.66,8.81,9.19,13.49,13.48a9,9,0,0,0,5.47,2.26q160,.15,319.93,0a8.37,8.37,0,0,0,5.18-2.07c4.84-4.49,9.44-9.25,14.06-14,.81-.83,1.78-2,1.79-3,.15-8.57.08-17.15.08-25.9H324.12v9.55c0,12.63-6.75,19.44-19.36,19.44q-96.16,0-192.34,0c-11.85,0-23.7.1-35.55,0-10.68-.12-17.65-7.33-17.73-18,0-3.59,0-7.17,0-11Zm59.13,0v8.26c0,8.65,1.65,10.34,10.17,10.34H303.52a40.21,40.21,0,0,0,4.11-.11c3.27-.34,5.49-2.32,5.79-5.42.4-4.28.1-8.61.1-13.06Z"/><path class="cls-2" d="M343,207.26c.08-1.45.19-2.55.19-3.65q0-84.77,0-169.52c0-14.81-9-23.59-23.93-23.6H64c-15.08,0-24,8.85-24,23.94,0,56.25.08,173,.08,173l-10.58-.05v-5.28q0-83.64,0-167.29c0-13,4.66-23.29,15.87-30.23A31.82,31.82,0,0,1,62.51,0q129.12,0,258.24,0c18.42,0,31.81,13,32.85,31.43.1,1.74.09,3.49.09,5.24V207.41L343,207.26"/><path class="cls-2" d="M191.63,193.93H61.79c-7.12,0-8.27-1.14-8.27-8.24q0-75.21,0-150.42C53.52,26.53,56.13,24,65,24H318.27c8.83,0,11.46,2.58,11.46,11.29q0,75.21,0,150.42c0,7.1-1.16,8.26-8.25,8.26ZM64.19,183.12H318.93V34.73H64.19Z"/></g></g></svg>