<svg width="348" height="372" viewBox="0 0 348 372" fill="none" xmlns="http://www.w3.org/2000/svg">
<path d="M220.37 371.75C219.24 371.75 218.12 371.84 217 371.84C162.39 371.84 77.78 371.84 23.17 371.84C8.49 371.84 0 363.31 0 348.55V23.19C0 8.49 8.53 0 23.27 0H252.7C267.4 0 275.91 8.52 275.92 23.24V120H263.92V23.26C263.92 15.15 260.73 12 252.55 12H23.55C15.09 12 12 15.07 12 23.47V348.47C12 356.82 15.12 359.9 23.57 359.9H216.25C217.62 359.9 219 359.96 220.37 359.99V371.75Z" fill="#3E4C66"/>
<path d="M245.93 120C245.93 97.14 245.87 74.27 246 51.41C246 48.6 245.34 47.96 242.55 47.96C172.85 47.9867 103.123 47.97 33.37 47.91C30.56 47.91 29.92 48.57 29.92 51.36C30.0067 141.073 30.0067 230.783 29.92 320.49C29.92 323.29 30.58 323.94 33.37 323.93C86.23 323.837 139.087 323.813 191.94 323.86V335.86H26.68C19.73 335.86 18 334.16 18 327.33C18 233.03 18 138.73 18 44.43C18 37.76 19.76 36 26.38 36C100.833 36 175.283 36 249.73 36C256.08 36 257.92 37.86 257.92 44.27C257.92 69.4967 257.92 94.7267 257.92 119.96L245.93 120Z" fill="#3E4C66"/>
<path d="M138 30C130.52 30 123 30 115.56 30C110.8 30 108.1 27.85 108.03 24.11C107.96 20.37 110.63 18 115.32 18C130.4 18 145.487 18 160.58 18C165.26 18 167.98 20.31 167.93 24.07C167.88 27.83 165.15 30 160.41 30C152.93 30 145.45 30 138 30Z" fill="#3E4C66"/>
<path d="M138 353.83C135.88 353.83 133.76 353.96 131.66 353.83C130.151 353.764 128.724 353.123 127.672 352.039C126.62 350.956 126.022 349.51 126 348C125.971 347.219 126.098 346.44 126.375 345.709C126.652 344.978 127.073 344.311 127.613 343.745C128.153 343.18 128.801 342.729 129.519 342.419C130.236 342.109 131.008 341.946 131.79 341.94C135.89 341.78 139.993 341.78 144.1 341.94C144.881 341.94 145.653 342.096 146.372 342.399C147.092 342.703 147.743 343.147 148.287 343.707C148.832 344.266 149.258 344.929 149.542 345.656C149.826 346.383 149.961 347.16 149.94 347.94C149.914 349.514 149.27 351.014 148.148 352.118C147.025 353.222 145.514 353.84 143.94 353.84C141.94 353.96 139.94 353.84 137.94 353.84L138 353.83Z" fill="#3E4C66"/>
<path d="M263.92 120H275.92C292.527 120 309.137 120 325.75 120C338.96 120 347.88 128.87 347.89 142C347.89 211.333 347.89 280.633 347.89 349.9C347.89 362.18 339.2 371.74 327.48 371.77C289.553 371.863 251.623 371.863 213.69 371.77C198.39 371.77 194.14 361.05 193.22 358.13C190.92 350.78 192.4 343.28 191.94 335.86V143.09C191.94 128.43 200.48 119.96 215.23 119.95H263.92V120ZM203.92 245.57C203.92 280.177 203.92 314.783 203.92 349.39C203.92 356.04 207.29 359.86 213.45 359.87C251.057 359.917 288.667 359.917 326.28 359.87C332.19 359.87 335.84 356.16 335.85 350.2C335.85 280.733 335.85 211.267 335.85 141.8C335.85 135.64 332.19 132.07 326.01 132.01C319.83 131.95 313.76 132.15 307.64 131.92C305.06 131.83 304.21 132.86 303.71 135.13C302.56 140.24 301.24 145.3 299.93 150.37C298.83 154.6 297.11 155.97 292.78 155.97C277.54 155.97 262.297 155.97 247.05 155.97C242.7 155.97 240.95 154.59 239.86 150.42C238.57 145.47 237.17 140.54 236.19 135.53C235.62 132.6 234.34 131.77 231.44 131.91C226.2 132.17 220.95 131.98 215.7 131.99C206.94 131.99 203.91 134.99 203.91 143.61L203.92 245.57ZM270.31 132H256.84C247.27 132 247.33 132 249.84 141.36C250.4 143.41 251.27 144.08 253.41 144.04C262.41 143.91 271.41 143.99 280.35 143.99C289.29 143.99 289.43 143.99 291.45 135.23C291.97 132.96 291.83 131.84 288.99 131.94C282.79 132.08 276.55 132 270.31 132Z" fill="#FF5A60"/>
<path d="M269.93 341.86C273.79 341.86 277.65 341.79 281.51 341.86C285.37 341.93 287.84 344.35 287.89 347.75C287.94 351.15 285.44 353.75 281.67 353.75C273.83 353.863 265.987 353.863 258.14 353.75C254.38 353.7 251.89 351.09 251.95 347.69C252.01 344.29 254.51 341.91 258.35 341.82C262.19 341.73 266.07 341.86 269.93 341.86Z" fill="#FF5A60"/>
</svg>
